<?xml version="1.0" standalone="no"?>
<!DOCTYPE svg PUBLIC "-//W3C//DTD SVG 20010904//EN"
 "http://www.w3.org/TR/2001/REC-SVG-20010904/DTD/svg10.dtd">
<svg version="1.0" xmlns="http://www.w3.org/2000/svg"
 width="500.000000pt" height="500.000000pt" viewBox="0 0 500.000000 500.000000"
 preserveAspectRatio="xMidYMid meet">
<metadata>
Created by potrace 1.11, written by Peter Selinger 2001-2013
</metadata>
<g transform="translate(0.000000,500.000000) scale(0.100000,-0.100000)"
fill="#000000" stroke="none">
<path d="M0 2510 l0 -1870 2495 0 2495 0 0 155 0 155 -2340 0 -2340 0 0 1715
0 1715 -155 0 -155 0 0 -1870z"/>
<path d="M3492 4047 c-13 -14 -22 -36 -22 -56 0 -28 19 -51 155 -187 85 -85
155 -158 155 -162 0 -4 -253 -260 -563 -570 l-563 -563 -296 295 c-269 269
-299 296 -330 296 -30 0 -89 -56 -756 -723 l-724 -724 232 -232 232 -233 40
39 c22 21 250 249 507 506 l468 468 296 -295 c268 -268 299 -296 329 -296 30
0 96 63 813 780 429 429 783 780 787 780 3 0 76 -70 162 -155 141 -140 159
-155 190 -155 23 0 42 7 56 22 20 21 20 32 20 580 l0 559 -25 24 -24 25 -559
0 -559 0 -21 -23z"/>
</g>
</svg>
